<svg width="51" height="51" viewBox="0 0 51 51" fill="none" xmlns="http://www.w3.org/2000/svg">
<path d="M0 5C0 2.23858 2.23858 0 5 0H46C48.7614 0 51 2.23858 51 5V46C51 48.7614 48.7614 51 46 51H5C2.23858 51 0 48.7614 0 46V5Z" fill="#1F1F1F"/>
<path d="M4 39C4 36.2386 6.23858 34 9 34H11C13.7614 34 16 36.2386 16 39V42C16 44.7614 13.7614 47 11 47H9C6.23858 47 4 44.7614 4 42V39Z" fill="#464646"/>
<path d="M35 39C35 36.2386 37.2386 34 40 34H42C44.7614 34 47 36.2386 47 39V42C47 44.7614 44.7614 47 42 47H40C37.2386 47 35 44.7614 35 42V39Z" fill="#464646"/>
<path d="M19 39C19 36.2386 21.2386 34 24 34H27C29.7614 34 32 36.2386 32 39V42C32 44.7614 29.7614 47 27 47H24C21.2386 47 19 44.7614 19 42V39Z" fill="#464646"/>
<path d="M4 24C4 21.2386 6.23858 19 9 19H11C13.7614 19 16 21.2386 16 24V27C16 29.7614 13.7614 32 11 32H9C6.23858 32 4 29.7614 4 27V24Z" fill="#464646"/>
<path d="M35 24C35 21.2386 37.2386 19 40 19H42C44.7614 19 47 21.2386 47 24V27C47 29.7614 44.7614 32 42 32H40C37.2386 32 35 29.7614 35 27V24Z" fill="#464646"/>
<path d="M19 24C19 21.2386 21.2386 19 24 19H27C29.7614 19 32 21.2386 32 24V27C32 29.7614 29.7614 32 27 32H24C21.2386 32 19 29.7614 19 27V24Z" fill="#464646"/>
<path d="M4 9C4 6.23858 6.23858 4 9 4H11C13.7614 4 16 6.23858 16 9V12C16 14.7614 13.7614 17 11 17H9C6.23858 17 4 14.7614 4 12V9Z" fill="#464646"/>
<path d="M35 9C35 6.23858 37.2386 4 40 4H42C44.7614 4 47 6.23858 47 9V12C47 14.7614 44.7614 17 42 17H40C37.2386 17 35 14.7614 35 12V9Z" fill="#464646"/>
<path d="M19 9C19 6.23858 21.2386 4 24 4H27C29.7614 4 32 6.23858 32 9V12C32 14.7614 29.7614 17 27 17H24C21.2386 17 19 14.7614 19 12V9Z" fill="#464646"/>
</svg>
