<svg width="50" height="50" viewBox="0 0 50 50" fill="none" xmlns="http://www.w3.org/2000/svg">
<path d="M0 5C0 2.23858 2.23858 0 5 0H45C47.7614 0 50 2.23858 50 5V45C50 47.7614 47.7614 50 45 50H5C2.23858 50 0 47.7614 0 45V5Z" fill="#1C1C1C"/>
<path d="M4.44446 9.44434C4.44446 6.68291 6.68303 4.44434 9.44446 4.44434H40.5556C43.317 4.44434 45.5556 6.68291 45.5556 9.44434C45.5556 12.2058 43.317 14.4443 40.5556 14.4443H9.44446C6.68304 14.4443 4.44446 12.2058 4.44446 9.44434Z" fill="#464646"/>
<path d="M4.44446 24.4443C4.44446 21.6829 6.68303 19.4443 9.44446 19.4443H40.5556C43.317 19.4443 45.5556 21.6829 45.5556 24.4443C45.5556 27.2058 43.317 29.4443 40.5556 29.4443H9.44446C6.68304 29.4443 4.44446 27.2058 4.44446 24.4443Z" fill="#464646"/>
<path d="M4.44446 39.4443C4.44446 36.6829 6.68303 34.4443 9.44446 34.4443H40.5556C43.317 34.4443 45.5556 36.6829 45.5556 39.4443C45.5556 42.2058 43.317 44.4443 40.5556 44.4443H9.44446C6.68304 44.4443 4.44446 42.2058 4.44446 39.4443Z" fill="#464646"/>
</svg>
