<svg width="58" height="57" viewBox="0 0 58 57" fill="none" xmlns="http://www.w3.org/2000/svg">
<g clip-path="url(#clip0)">
<path d="M51.0308 45.361C50.8611 45.2522 49.5837 44.3688 48.3046 41.6964C45.9557 36.7888 45.4626 29.8756 45.4626 24.9403C45.4626 24.9188 45.4622 24.8975 45.4614 24.8762C45.4358 18.3536 41.4793 12.7308 35.8177 10.208V6.34971C35.8177 2.84844 32.937 0 29.3961 0H28.8639C25.3231 0 22.4424 2.84844 22.4424 6.34971V10.2078C16.7618 12.7387 12.7974 18.3902 12.7974 24.9403C12.7974 29.8756 12.3044 36.7887 9.95542 41.6964C8.67645 44.3687 7.39907 45.2521 7.22923 45.361C6.51402 45.6877 6.16138 46.4425 6.32592 47.2075C6.49203 47.98 7.22348 48.5126 8.02226 48.5126H20.4214C20.4906 53.204 24.3693 57 29.1301 57C33.8908 57 37.7695 53.204 37.8388 48.5126H50.2379C51.0366 48.5126 51.7681 47.98 51.9342 47.2075C52.0985 46.4425 51.746 45.6876 51.0308 45.361ZM25.8257 6.34971C25.8257 4.69304 27.1887 3.3453 28.864 3.3453H29.3962C31.0716 3.3453 32.4346 4.69304 32.4346 6.34971V9.12367C31.3668 8.9058 30.2615 8.79114 29.1296 8.79114C27.9981 8.79114 26.8931 8.90569 25.8258 9.12334V6.34971H25.8257ZM29.1301 53.6547C26.2348 53.6547 23.8733 51.3594 23.8046 48.5127H34.4555C34.3869 51.3593 32.0253 53.6547 29.1301 53.6547ZM35.9416 45.1672C35.9413 45.1672 11.8774 45.1672 11.8774 45.1672C12.1701 44.7169 12.4679 44.2072 12.7639 43.6311C15.0311 39.2177 16.1807 32.9292 16.1807 24.9403C16.1807 17.8802 21.9896 12.1364 29.1295 12.1364C36.2694 12.1364 42.0783 17.8802 42.0783 24.9458C42.0783 24.9664 42.0786 24.9869 42.0794 25.0074C42.0858 32.9643 43.2353 39.2301 45.4962 43.6311C45.7923 44.2073 46.0902 44.7169 46.3827 45.1672H35.9416Z" fill="#BCBCBC"/>
</g>
<defs>
<clipPath id="clip0">
<rect width="57.7401" height="57" fill="white" transform="translate(0.26001)"/>
</clipPath>
</defs>
</svg>
