<svg width="54" height="54" viewBox="0 0 54 54" fill="none" xmlns="http://www.w3.org/2000/svg">
<path d="M26.9999 50.9958C26.2312 50.9958 25.49 50.7173 24.9124 50.2114C22.7309 48.3039 20.6278 46.5113 18.7722 44.9301L18.7627 44.9219C13.3224 40.2858 8.62453 36.2821 5.35582 32.3381C1.70192 27.929 0 23.7486 0 19.1817C0 14.7446 1.52147 10.6511 4.28384 7.65472C7.07916 4.62291 10.9148 2.95312 15.0853 2.95312C18.2024 2.95312 21.057 3.9386 23.5697 5.88194C24.8378 6.86288 25.9873 8.06342 26.9999 9.46376C28.013 8.06342 29.1621 6.86288 30.4306 5.88194C32.9433 3.9386 35.7979 2.95312 38.915 2.95312C43.0851 2.95312 46.9211 4.62291 49.7165 7.65472C52.4788 10.6511 53.9999 14.7446 53.9999 19.1817C53.9999 23.7486 52.2984 27.929 48.6445 32.3377C45.3758 36.2821 40.6783 40.2854 35.2389 44.921C33.38 46.5047 31.2735 48.3002 29.0871 50.2122C28.5099 50.7173 27.7683 50.9958 26.9999 50.9958ZM15.0853 6.11636C11.8088 6.11636 8.7988 7.42401 6.60909 9.79871C4.38683 12.2092 3.16282 15.5414 3.16282 19.1817C3.16282 23.0227 4.59035 26.4578 7.79108 30.3198C10.8847 34.0528 15.4862 37.9741 20.814 42.5146L20.8239 42.5229C22.6864 44.1102 24.7979 45.9098 26.9954 47.8313C29.2061 45.9061 31.3209 44.1037 33.1872 42.5138C38.5146 37.9733 43.1156 34.0528 46.2092 30.3198C49.4095 26.4578 50.8371 23.0227 50.8371 19.1817C50.8371 15.5414 49.6131 12.2092 47.3908 9.79871C45.2015 7.42401 42.1911 6.11636 38.915 6.11636C36.5148 6.11636 34.3111 6.87936 32.3652 8.38394C30.6312 9.72537 29.4233 11.4211 28.715 12.6076C28.3509 13.2178 27.7098 13.582 26.9999 13.582C26.2901 13.582 25.649 13.2178 25.2848 12.6076C24.5771 11.4211 23.3691 9.72537 21.6346 8.38394C19.6888 6.87936 17.4851 6.11636 15.0853 6.11636Z" fill="#BCBCBC"/>
</svg>
