<svg width="42" height="42" viewBox="0 0 42 42" fill="none" xmlns="http://www.w3.org/2000/svg">
<path d="M41.4868 39.0124L29.5432 27.0687C31.8567 24.211 33.2496 20.5798 33.2496 16.6249C33.2496 7.45845 25.7912 0 16.6248 0C7.45837 0 0 7.45837 0 16.6248C0 25.7912 7.45845 33.2496 16.6249 33.2496C20.5798 33.2496 24.211 31.8567 27.0687 29.5432L39.0124 41.4868C39.3536 41.8281 39.8016 41.9996 40.2496 41.9996C40.6977 41.9996 41.1457 41.8281 41.4869 41.4868C42.1711 40.8026 42.1711 39.6966 41.4868 39.0124ZM16.6249 29.7497C9.38691 29.7497 3.49999 23.8627 3.49999 16.6248C3.49999 9.38683 9.38691 3.49991 16.6249 3.49991C23.8628 3.49991 29.7497 9.38683 29.7497 16.6248C29.7497 23.8627 23.8627 29.7497 16.6249 29.7497Z" fill="#CBCBCB"/>
</svg>
