<svg width="49" height="49" viewBox="0 0 49 49" fill="none" xmlns="http://www.w3.org/2000/svg">
<path d="M24.1507 23.6035C27.3934 23.6035 30.2009 22.4405 32.4956 20.1458C34.7895 17.8516 35.9529 15.0444 35.9529 11.8014C35.9529 8.55943 34.7898 5.7519 32.4952 3.45689C30.2006 1.16302 27.393 0 24.1507 0C20.9076 0 18.1005 1.16302 15.8062 3.45727C13.512 5.75152 12.3486 8.55906 12.3486 11.8014C12.3486 15.0444 13.512 17.852 15.8062 20.1462C18.1012 22.4401 20.9088 23.6035 24.1507 23.6035ZM17.8369 5.48759C19.5973 3.72718 21.6624 2.87146 24.1507 2.87146C26.6386 2.87146 28.7041 3.72718 30.4649 5.48759C32.2253 7.24838 33.0814 9.31384 33.0814 11.8014C33.0814 14.2896 32.2253 16.3547 30.4649 18.1155C28.7041 19.8763 26.6386 20.732 24.1507 20.732C21.6632 20.732 19.5981 19.8759 17.8369 18.1155C16.0761 16.3551 15.22 14.2896 15.22 11.8014C15.22 9.31384 16.0761 7.24838 17.8369 5.48759Z" fill="#BCBCBC"/>
<path d="M44.8013 37.6786C44.7351 36.7238 44.6013 35.6823 44.4043 34.5825C44.2054 33.4744 43.9493 32.4269 43.6427 31.4695C43.3257 30.4799 42.8954 29.5027 42.3627 28.5662C41.8106 27.5943 41.1616 26.7479 40.4333 26.0514C39.6718 25.3228 38.7395 24.737 37.6613 24.3097C36.5869 23.8847 35.3962 23.6693 34.1225 23.6693C33.6223 23.6693 33.1386 23.8746 32.2044 24.4828C31.6294 24.8578 30.9568 25.2914 30.2062 25.771C29.5643 26.18 28.6947 26.5632 27.6207 26.9101C26.5728 27.2492 25.5089 27.4212 24.4584 27.4212C23.4086 27.4212 22.3447 27.2492 21.2961 26.9101C20.2231 26.5636 19.3532 26.1804 18.7125 25.7714C17.9689 25.2963 17.296 24.8626 16.7124 24.4824C15.7789 23.8742 15.2952 23.6689 14.795 23.6689C13.5209 23.6689 12.3306 23.8847 11.2566 24.3101C10.1792 24.7366 9.24644 25.3224 8.48418 26.0518C7.75594 26.7486 7.10696 27.5946 6.55517 28.5662C6.02319 29.5027 5.59253 30.4796 5.27551 31.4699C4.96934 32.4273 4.71326 33.4744 4.51437 34.5825C4.31699 35.6808 4.18353 36.7227 4.11736 37.6797C4.05231 38.6154 4.01941 39.5893 4.01941 40.5732C4.01941 43.131 4.83251 45.2017 6.43591 46.7289C8.0195 48.2358 10.1145 49 12.663 49H36.2568C38.8045 49 40.8995 48.2358 42.4835 46.7289C44.0872 45.2029 44.9003 43.1314 44.9003 40.5729C44.9 39.5856 44.8667 38.6117 44.8013 37.6786ZM40.5036 44.6485C39.4572 45.6444 38.068 46.1285 36.2564 46.1285H12.663C10.851 46.1285 9.46178 45.6444 8.41577 44.6488C7.38958 43.672 6.89088 42.3385 6.89088 40.5732C6.89088 39.6551 6.92116 38.7485 6.98172 37.8782C7.04079 37.0244 7.16154 36.0864 7.34061 35.0898C7.51743 34.1054 7.74249 33.1817 8.01015 32.3454C8.26698 31.5435 8.61727 30.7495 9.05167 29.9846C9.46626 29.2556 9.94328 28.6302 10.4697 28.1262C10.962 27.6548 11.5826 27.269 12.3138 26.9797C12.9901 26.712 13.7501 26.5655 14.5752 26.5434C14.6757 26.5969 14.8548 26.6989 15.1449 26.8881C15.7352 27.2728 16.4156 27.7116 17.1677 28.192C18.0156 28.7326 19.108 29.2208 20.4131 29.6422C21.7473 30.0736 23.1081 30.2926 24.4588 30.2926C25.8094 30.2926 27.1706 30.0736 28.5041 29.6425C29.8103 29.2205 30.9023 28.7326 31.7513 28.1913C32.521 27.6993 33.1823 27.2731 33.7726 26.8881C34.0627 26.6993 34.2418 26.5969 34.3423 26.5434C35.1678 26.5655 35.9278 26.712 36.6045 26.9797C37.3353 27.269 37.9559 27.6552 38.4482 28.1262C38.9746 28.6298 39.4516 29.2552 39.8662 29.985C40.301 30.7495 40.6516 31.5439 40.9081 32.345C41.1761 33.1824 41.4016 34.1058 41.578 35.0894C41.7567 36.0879 41.8778 37.0262 41.9369 37.8786V37.8793C41.9978 38.7463 42.0285 39.6525 42.0289 40.5732C42.0285 42.3389 41.5298 43.672 40.5036 44.6485Z" fill="#BCBCBC"/>
</svg>
