<svg width="51" height="51" viewBox="0 0 51 51" fill="none" xmlns="http://www.w3.org/2000/svg">
<path d="M25.5 48.1627C24.7739 48.1627 24.0739 47.8997 23.5284 47.4218C21.4681 45.6203 19.4818 43.9273 17.7293 42.434L17.7203 42.4262C12.5823 38.0477 8.14538 34.2664 5.05828 30.5416C1.60737 26.3774 0 22.4292 0 18.1161C0 13.9255 1.43694 10.0594 4.04584 7.22946C6.68588 4.36608 10.3084 2.78906 14.2472 2.78906C17.1911 2.78906 19.8872 3.71979 22.2603 5.55517C23.458 6.48161 24.5435 7.61545 25.5 8.938C26.4567 7.61545 27.5419 6.48161 28.74 5.55517C31.1131 3.71979 33.8091 2.78906 36.7531 2.78906C40.6915 2.78906 44.3144 4.36608 46.9544 7.22946C49.5634 10.0594 50.9999 13.9255 50.9999 18.1161C50.9999 22.4292 49.3929 26.3774 45.942 30.5412C42.8549 34.2664 38.4184 38.0473 33.2811 42.4254C31.5255 43.9211 29.5361 45.6168 27.4711 47.4226C26.926 47.8997 26.2256 48.1627 25.5 48.1627ZM14.2472 5.77657C11.1527 5.77657 8.30997 7.01157 6.24192 9.25433C4.14312 11.531 2.98711 14.678 2.98711 18.1161C2.98711 21.7436 4.33533 24.9879 7.35824 28.6354C10.28 32.161 14.6258 35.8644 19.6576 40.1527L19.667 40.1605C21.4261 41.6597 23.4202 43.3593 25.4957 45.174C27.5836 43.3558 29.5808 41.6535 31.3434 40.1519C36.3749 35.8637 40.7203 32.161 43.6421 28.6354C46.6646 24.9879 48.0128 21.7436 48.0128 18.1161C48.0128 14.678 46.8568 11.531 44.758 9.25433C42.6903 7.01157 39.8472 5.77657 36.7531 5.77657C34.4862 5.77657 32.4049 6.49718 30.5672 7.91817C28.9295 9.18507 27.7886 10.7866 27.1198 11.9072C26.7758 12.4835 26.1704 12.8274 25.5 12.8274C24.8295 12.8274 24.2241 12.4835 23.8801 11.9072C23.2117 10.7866 22.0708 9.18507 20.4327 7.91817C18.595 6.49718 16.5137 5.77657 14.2472 5.77657Z" fill="#646464"/>
</svg>
