<svg width="51" height="46" viewBox="0 0 51 46" fill="none" xmlns="http://www.w3.org/2000/svg">
<path d="M46.9541 4.5017C44.3141 1.59879 40.6916 0 36.7531 0C33.8092 0 31.1131 0.943574 28.7396 2.80429C27.542 3.74353 26.4568 4.89262 25.5 6.23382C24.5436 4.89301 23.458 3.74353 22.26 2.80429C19.8869 0.943574 17.1908 0 14.2469 0C10.3084 0 6.6855 1.59879 4.04546 4.5017C1.43694 7.37068 0 11.2901 0 15.5386C0 19.9113 1.60737 23.914 5.05829 28.1356C8.1454 31.9119 12.5823 35.7453 17.7204 40.1843C19.4748 41.7003 21.4635 43.4186 23.5284 45.2489C24.074 45.7333 24.7739 46 25.5 46C26.2257 46 26.926 45.7333 27.4708 45.2497C29.5357 43.419 31.5256 41.6999 33.2808 40.1831C38.4181 35.7449 42.855 31.9119 45.9421 28.1352C49.393 23.914 51 19.9113 51 15.5382C51 11.2901 49.5631 7.37068 46.9541 4.5017Z" fill="#803434"/>
</svg>
