<svg width="54" height="54" viewBox="0 0 54 54" fill="none" xmlns="http://www.w3.org/2000/svg">
<path d="M53.1553 8.51371C52.431 7.47078 51.3544 6.87273 50.2018 6.87273H9.04251L8.67495 3.80749C8.41466 1.63694 6.79805 0 4.91449 0H1.68749C0.755573 0 0 0.879218 0 1.96364C0 3.04805 0.755573 3.92727 1.68749 3.92727H4.91449C5.12374 3.92727 5.30346 4.10915 5.33225 4.35031L9.88731 42.338C10.1476 44.5086 11.7642 46.1455 13.6478 46.1455H15.4775C15.2902 46.7601 15.1873 47.4207 15.1873 48.1091C15.1873 51.3573 17.4583 54 20.2498 54C23.0412 54 25.3122 51.3573 25.3122 48.1091C25.3122 47.4207 25.2093 46.7601 25.022 46.1455H34.0399C33.8526 46.7601 33.7497 47.4207 33.7497 48.1091C33.7497 51.3573 36.0207 54 38.8121 54C41.6035 54 43.8746 51.3573 43.8746 48.1091C43.8746 47.4207 43.7717 46.7601 43.5843 46.1455H47.2497C48.1816 46.1455 48.9372 45.2662 48.9372 44.1818C48.9372 43.0974 48.1816 42.2182 47.2497 42.2182H13.6479C13.4386 42.2182 13.2589 42.0363 13.2301 41.7951L12.8099 38.2909H46.0431C47.8211 38.2909 49.3826 36.8225 49.7561 34.7983L53.9146 12.2169C54.1562 10.906 53.8795 9.55628 53.1553 8.51371ZM21.9373 48.1091C21.9373 49.1918 21.1803 50.0727 20.2499 50.0727C19.3194 50.0727 18.5624 49.1918 18.5624 48.1091C18.5624 47.0264 19.3194 46.1455 20.2499 46.1455C21.1803 46.1455 21.9373 47.0263 21.9373 48.1091ZM40.4997 48.1091C40.4997 49.1918 39.7427 50.0727 38.8122 50.0727C37.8818 50.0727 37.1247 49.1918 37.1247 48.1091C37.1247 47.0264 37.8818 46.1455 38.8122 46.1455C39.7427 46.1455 40.4997 47.0263 40.4997 48.1091ZM50.6146 11.3936L46.4562 33.9746C46.4147 34.1999 46.2409 34.3635 46.0431 34.3635H12.3389L9.51343 10.7999H50.2017C50.3687 10.7999 50.4727 10.899 50.5305 10.9823C50.5882 11.0653 50.6495 11.2041 50.6146 11.3936Z" fill="#BCBCBC"/>
</svg>
