<svg width="296" height="82" viewBox="0 0 296 82" fill="none" xmlns="http://www.w3.org/2000/svg">
<g clip-path="url(#clip0)">
<path d="M91.137 12.3615H91.0133C88.5971 12.3615 86.6384 14.3202 86.6384 16.7364V68.1691C86.6384 70.5853 88.5971 72.544 91.0133 72.544H91.137C93.5532 72.544 95.5118 70.5853 95.5118 68.1691V16.7364C95.5118 14.3202 93.5532 12.3615 91.137 12.3615Z" fill="white"/>
<path d="M81.3237 21.8437C81.3237 19.4865 79.4127 17.5755 77.0555 17.5755C74.6982 17.5755 72.7872 19.4865 72.7872 21.8437V62.5248C72.7872 64.8821 74.6982 66.7931 77.0555 66.7931C79.4127 66.7931 81.3237 64.8821 81.3237 62.5248V21.8437Z" fill="white"/>
<path d="M63.465 22.651H63.4643C61.2906 22.651 59.5286 24.4131 59.5286 26.5867V58.3181C59.5286 60.4917 61.2906 62.2538 63.4643 62.2538H63.465C65.6386 62.2538 67.4007 60.4917 67.4007 58.3181V26.5867C67.4007 24.4131 65.6386 22.651 63.465 22.651Z" fill="white"/>
<path d="M53.2621 39.9779H45.13C44.3488 39.9779 43.7155 40.6113 43.7155 41.3925V43.5137C43.7155 44.2949 44.3488 44.9283 45.13 44.9283H53.2621C54.0434 44.9283 54.6767 44.2949 54.6767 43.5137V41.3925C54.6767 40.6113 54.0434 39.9779 53.2621 39.9779Z" fill="white"/>
<path d="M213.276 72.2751H213.399C215.816 72.2751 217.774 70.3164 217.774 67.9003V16.4675C217.774 14.0513 215.816 12.0926 213.399 12.0926H213.276C210.86 12.0926 208.901 14.0513 208.901 16.4675V67.9003C208.901 70.3164 210.86 72.2751 213.276 72.2751Z" fill="white"/>
<path d="M223.089 62.2567C223.089 64.614 225 66.5249 227.357 66.5249C229.715 66.5249 231.626 64.614 231.626 62.2567V21.5756C231.626 19.2183 229.715 17.3074 227.357 17.3074C225 17.3074 223.089 19.2183 223.089 21.5756V62.2567Z" fill="white"/>
<path d="M240.947 61.9856H240.948C243.121 61.9856 244.883 60.2235 244.883 58.0499V26.3186C244.883 24.1449 243.121 22.3829 240.948 22.3829H240.947C238.773 22.3829 237.011 24.1449 237.011 26.3186V58.0499C237.011 60.2235 238.773 61.9856 240.947 61.9856Z" fill="white"/>
<path d="M251.151 44.6595H259.283C260.064 44.6595 260.697 44.0261 260.697 43.2449V41.1237C260.697 40.3424 260.064 39.7091 259.283 39.7091H251.151C250.369 39.7091 249.736 40.3424 249.736 41.1237V43.2449C249.736 44.0261 250.369 44.6595 251.151 44.6595Z" fill="white"/>
<path d="M101.26 54.3179L101.297 37.7983C101.654 32.8297 105.2 30.2353 111.936 30.015L122.555 30.0321C128.747 30.3565 131.962 32.9279 132.199 37.7464L132.15 54.3528H123.818L123.847 46.968L109.909 46.9161V54.3179H101.26ZM110.008 38.3204L109.976 40.903H123.885L123.92 38.8752C124.131 37.0029 123.297 35.9571 121.417 35.7379L112.998 35.7549C110.764 35.7998 109.768 36.6533 110.008 38.3152V38.3204Z" fill="white"/>
<path d="M145.6 52.3249L131.372 30.1535H142.302L151.362 44.4024L160.018 30.1535H170.5L156.776 52.3249C155.711 53.9424 153.85 54.7512 151.193 54.7512C148.55 54.7512 146.686 53.9424 145.6 52.3249Z" fill="white"/>
<path d="M202.727 54.3868H180.622C174.224 54.098 171.024 50.0475 171.021 42.2354C171.018 34.4233 174.426 30.3841 181.246 30.118L202.772 30.1358L202.759 36.0467H183.743C182.326 36.0586 181.337 36.4457 180.777 37.208C179.635 40.213 179.41 43.2177 180.103 46.2222C180.389 47.181 181.213 47.7935 182.576 48.0597L202.737 48.0945L202.727 54.3868Z" fill="white"/>
</g>
<defs>
<clipPath id="clip0">
<rect width="296" height="82" fill="white"/>
</clipPath>
</defs>
</svg>
