<svg width="52" height="52" viewBox="0 0 52 52" fill="none" xmlns="http://www.w3.org/2000/svg">
<g clip-path="url(#clip0)">
<path d="M32.4997 28.1677C31.3016 28.1677 30.3331 29.1385 30.3331 30.3342V39.0011C30.3331 40.1948 29.3624 41.1676 28.1662 41.1676H21.6663V8.66791C21.6663 6.81759 20.4876 5.16444 18.7155 4.54912L18.074 4.33449H28.1662C29.3624 4.33449 30.3331 5.30726 30.3331 6.5014V13.0013C30.3331 14.1971 31.3016 15.1678 32.4997 15.1678C33.6978 15.1678 34.6662 14.1971 34.6662 13.0013V6.5014C34.6662 2.91779 31.7499 0.00146484 28.1662 0.00146484H4.87495C4.79243 0.00146484 4.7234 0.0383603 4.64326 0.0490718C4.53892 0.0403439 4.43935 0.00146484 4.33342 0.00146484C1.94355 0.00146484 0 1.94462 0 4.33449V43.3341C0 45.1844 1.17867 46.8376 2.95084 47.4529L15.99 51.7994C16.4319 51.9359 16.8715 52.0009 17.3333 52.0009C19.7232 52.0009 21.6663 50.0574 21.6663 47.6675V45.501H28.1662C31.7499 45.501 34.6662 42.5847 34.6662 39.0011V30.3342C34.6662 29.1385 33.6978 28.1677 32.4997 28.1677V28.1677Z" fill="#BCBCBC"/>
<path d="M51.3647 20.1354L42.6979 11.4689C42.0786 10.8492 41.1467 10.6628 40.3366 10.9984C39.5284 11.3344 38.9996 12.1251 38.9996 13.0007V19.5006H30.3332C29.137 19.5006 28.1663 20.471 28.1663 21.6671C28.1663 22.8632 29.137 23.8336 30.3332 23.8336H38.9996V30.3336C38.9996 31.2091 39.5284 31.9998 40.3366 32.3358C41.1467 32.6714 42.0786 32.485 42.6979 31.8657L51.3647 23.1989C52.2117 22.3519 52.2117 20.9824 51.3647 20.1354V20.1354Z" fill="#BCBCBC"/>
</g>
<defs>
<clipPath id="clip0">
<rect width="52" height="52" fill="white"/>
</clipPath>
</defs>
</svg>
