<svg width="49" height="49" viewBox="0 0 49 49" fill="none" xmlns="http://www.w3.org/2000/svg">
<g clip-path="url(#clip0)">
<path d="M32.4039 39.6731C32.4823 39.6862 32.5602 39.6925 32.6371 39.6925C33.3127 39.6925 33.9091 39.2045 34.0239 38.516L35.4315 30.0701C35.5594 29.3033 35.0413 28.5779 34.2744 28.4501C33.5076 28.3219 32.7823 28.8403 32.6545 29.6072L31.2469 38.0532C31.119 38.8201 31.6371 39.5454 32.4039 39.6731Z" fill="black"/>
<path d="M15.6688 38.5164C15.7836 39.2049 16.3798 39.6929 17.0556 39.6929C17.1325 39.6929 17.2104 39.6866 17.2887 39.6735C18.0556 39.5457 18.5736 38.8204 18.4458 38.0535L17.0382 29.6076C16.9104 28.8407 16.1852 28.3228 15.4182 28.4505C14.6513 28.5783 14.1333 29.3035 14.2611 30.0704L15.6688 38.5164Z" fill="black"/>
<path d="M47.4158 17.1698H42.4617L31.6231 3.62159C31.1376 3.0147 30.2518 2.91607 29.6446 3.4018C29.0375 3.88745 28.9391 4.77324 29.4248 5.38031L38.8564 17.1698H10.7425L20.1741 5.38031C20.6598 4.77324 20.5613 3.88735 19.9544 3.4018C19.3472 2.91607 18.4614 3.0146 17.9758 3.62159L7.13716 17.1698H2.18305C1.40565 17.1698 0.775391 17.8001 0.775391 18.5775V24.2081C0.775391 24.9855 1.40565 25.6158 2.18305 25.6158H3.93662L9.27558 44.3021C9.44816 44.9064 10.0005 45.323 10.629 45.323H38.9699C39.5983 45.323 40.1507 44.9064 40.3234 44.3021L45.6622 25.6158H47.4158C48.1932 25.6158 48.8235 24.9855 48.8235 24.2081V18.5775C48.8235 17.8001 48.1932 17.1698 47.4158 17.1698ZM37.9081 42.5077H11.6907L6.86455 25.6158H42.7344L37.9081 42.5077ZM46.0081 22.8005C41.186 22.8005 8.15903 22.8005 3.59071 22.8005V19.9851H46.0081V22.8005Z" fill="black"/>
<path d="M24.7994 39.6924C25.5768 39.6924 26.2071 39.0622 26.2071 38.2848V29.8388C26.2071 29.0614 25.5768 28.4312 24.7994 28.4312C24.022 28.4312 23.3918 29.0614 23.3918 29.8388V38.2848C23.3918 39.0623 24.022 39.6924 24.7994 39.6924Z" fill="black"/>
</g>
<defs>
<clipPath id="clip0">
<rect width="48.0481" height="48.0481" fill="white" transform="translate(0.775391 0.184082)"/>
</clipPath>
</defs>
</svg>
